<svg viewBox="-11 0 426 426.926"  xmlns="http://www.w3.org/2000/svg"><path d="M307.664 218.71c0 84.833-68.77 153.602-153.601 153.602S.46 303.543.46 218.712c0-84.828 68.77-153.598 153.601-153.598s153.602 68.77 153.602 153.598zm0 0" fill="#efefd2"/><g fill="#4c241d"><path d="M201.855 314.285c-.25 0-.507-.012-.757-.039a6.837 6.837 0 01-6.036-7.539c6.602-59.402-22.792-161.582-23.085-162.602-1.051-3.625 1.027-7.414 4.648-8.457 3.664-1.082 7.414 1.032 8.46 4.645 1.247 4.297 30.446 105.844 23.552 167.922-.387 3.492-3.348 6.07-6.782 6.07zm0 0M222.336 314.285c-.52 0-1.047-.058-1.574-.18a6.835 6.835 0 01-5.078-8.21c1.132-4.813 28.23-118.422 70.086-160.274a6.828 6.828 0 019.652 0 6.828 6.828 0 010 9.652c-39.11 39.114-66.18 152.606-66.45 153.754a6.829 6.829 0 01-6.636 5.258zm0 0M167.715 314.285a6.818 6.818 0 01-6.824-6.824c0-25.063-19.313-57.61-19.508-57.934a6.817 6.817 0 012.347-9.359 6.822 6.822 0 019.36 2.34c.87 1.457 21.453 36.086 21.453 64.953a6.822 6.822 0 01-6.828 6.824zm0 0"/></g><path d="M211.484 97.902c-2.68-1.918-2.855-5.773-.629-8.203 3.266-3.562 6.348-7.457 9.168-11.332-3.597-12.512-10.355-25.879-22.507-37.648.48 12.972-1.2 24.965-2.93 33.261-1.316 6.301-7.844 9.993-13.945 7.957-5.286-1.761-8.297-7.28-7.055-12.71 4.582-20.043 4.086-34.497 2.39-44.063-7.413-3.996-15.93-7.508-25.742-10.363.664 6.863-.316 12.664-1.445 16.562a7.324 7.324 0 01-7.262 5.309l-.832-.024c-4.386-.128-7.476-4.039-7.02-8.406.583-5.543-.038-11.937-.956-17.531a215.871 215.871 0 00-14.07-2.102c2.355 8.75 2.663 15.543-2.133 15.543-6.793 0-11.891-8.445-15.305-16.933a332.703 332.703 0 00-29.07-.133s-1.36 6.598-2.559 17.105c5.004 4.13 11.746 9.07 18.23 11.723 4.067 1.664 6.051 6.234 4.086 10.16l-.37.746a7.328 7.328 0 01-8.114 3.883c-3.992-.851-9.613-2.746-15.383-6.633a253.728 253.728 0 000 21.543c7.582 5.63 18.844 11.942 35.422 17.14 5.313 1.665 8.559 7.052 7.414 12.5-1.324 6.302-7.8 10.075-13.902 8.032-7.063-2.363-16.574-6.137-26.215-11.738 2.04 11.77 5.344 23.535 10.395 34.457 8.628-.633 20.43-2 31.12-4.984 3.172-.887 6.532 1.02 7.028 4.277.805 5.258-2.988 13.09-27.777 18.344 6.285 8.379 14.144 15.707 23.91 21.43 5.09-1.52 10.367-3.344 15.324-5.52 3.02-1.324 6.613.086 7.563 3.242.816 2.715.43 6.34-3.688 10.445 4.8 1.438 9.836 2.653 15.32 3.438 6.684.957 13.45-1.438 18.227-6.211a21.76 21.76 0 006.367-15.375v-1.606c0-9.218 7.473-16.695 16.695-16.695h4.028c4.293 0 8.488-1.273 12.062-3.652l6.696-4.465c5.695-3.797 9.277-10.016 9.656-16.852a105.59 105.59 0 00-.215-14.511c-5.707 3.136-9.54 2.34-11.977.593zm0 0" fill="#a9ba5a"/><path d="M152.848 183.715c-1.293 0-2.586-.094-3.871-.274-5.235-.75-10.575-1.941-16.301-3.656a6.812 6.812 0 01-4.668-4.867 6.828 6.828 0 011.8-6.504c.348-.348.922-.953 1.36-1.621-4.152 1.707-8.777 3.328-13.785 4.82-1.82.547-3.774.301-5.399-.648-10.062-5.89-18.78-13.7-25.925-23.219a6.822 6.822 0 01-.934-6.5 6.834 6.834 0 014.973-4.281c13.867-2.938 19.566-6.453 21.547-8.711-10.704 2.719-22.082 3.98-29.993 4.559a6.824 6.824 0 01-6.695-3.938c-4.96-10.715-8.633-22.883-10.926-36.164a6.837 6.837 0 012.824-6.766 6.841 6.841 0 017.329-.293c9.472 5.5 18.793 9.106 24.945 11.16 1.43.473 2.59.008 3.148-.316a3.92 3.92 0 001.914-2.637c.418-1.988-.78-3.96-2.773-4.59C86.52 84.599 73.91 78.485 63.965 71.09a6.823 6.823 0 01-2.754-5.19 261.097 261.097 0 01.008-22.122 6.83 6.83 0 013.746-5.8 6.835 6.835 0 016.887.433c5.105 3.442 9.886 4.953 12.992 5.621l.953-1.011c-.012-.336-.145-.622-.574-.797-5.918-2.41-12.653-6.711-19.985-12.766a6.822 6.822 0 01-2.433-6.039c1.218-10.688 2.593-17.426 2.652-17.715a6.831 6.831 0 016.43-5.437c10.086-.391 19.793-.356 29.66.132a6.838 6.838 0 016 4.274c2.031 5.047 3.953 8.226 5.531 10.133-.21-1.188-.539-2.649-1.02-4.422a6.834 6.834 0 011.426-6.238c1.473-1.715 3.66-2.614 5.961-2.32 4.825.558 9.707 1.292 14.508 2.171a6.826 6.826 0 015.512 5.613c1.219 7.5 1.558 14.008 1 19.34-.047.45.14.7.191.762l1.094.137c1.36-3.418 2.281-8.32 1.695-14.391a6.815 6.815 0 012.434-5.914 6.76 6.76 0 016.266-1.3c9.875 2.866 18.98 6.538 27.078 10.913a6.816 6.816 0 013.476 4.813c2.39 13.453 1.567 29.187-2.457 46.773-.465 2.047.633 4.074 2.567 4.719 1.433.473 2.656.008 3.234-.32a3.838 3.838 0 001.867-2.567c1.528-7.355 3.262-18.82 2.79-31.61a6.811 6.811 0 014.038-6.484 6.817 6.817 0 017.528 1.333c11.605 11.238 19.785 24.921 24.32 40.66.578 2.02.2 4.199-1.043 5.898-2.676 3.695-5.352 7.063-7.965 10.047 1.059-.285 2.14-.844 2.598-1.102a6.869 6.869 0 016.515-.027 6.822 6.822 0 013.575 5.45c.433 5.163.511 10.363.23 15.452-.492 8.907-5.23 17.184-12.687 22.16l-6.692 4.458a28.507 28.507 0 01-15.855 4.8h-4.024c-5.441 0-9.867 4.426-9.867 9.868v1.605c0 7.52-3.047 14.887-8.367 20.2-5.406 5.417-12.727 8.433-20.156 8.433zm-7.832-14.836c1.988.422 3.933.762 5.894 1.039 4.485.648 9.121-.957 12.438-4.281a15.019 15.019 0 004.367-10.547v-1.606c0-12.964 10.555-23.52 23.52-23.52h4.027c2.953 0 5.82-.866 8.281-2.507l6.691-4.457c3.895-2.602 6.375-6.922 6.637-11.555a95.59 95.59 0 00.14-5.199c-4.402.305-7.609-1.433-9.495-2.781 0-.008-.004-.008-.004-.016a12.028 12.028 0 01-4.953-8.539c-.375-3.566.82-7.148 3.265-9.82 2.153-2.352 4.387-5.04 6.653-8.02-2.153-6.5-5.067-12.566-8.711-18.144a154.187 154.187 0 01-2.489 16.445 17.542 17.542 0 01-8.433 11.613 17.687 17.687 0 01-14.36 1.426c-8.632-2.879-13.597-11.785-11.547-20.71 3.934-17.216 3.848-29.833 2.813-38.083a120.94 120.94 0 00-12.7-5.426 49.43 49.43 0 01-1.698 9.063c-1.813 6.223-7.622 10.254-14.02 10.242l-.855-.035c-3.907-.106-7.5-1.8-10.086-4.754-2.653-3.023-3.926-7.098-3.508-11.172.207-1.933.25-4.12.129-6.547-.301 2.442-1.09 4.422-2.356 6.078-1.933 2.524-4.824 3.907-8.14 3.907-7.813 0-14.48-5.75-19.852-17.118a337.102 337.102 0 00-18.77-.12c-.32 2.015-.699 4.538-1.078 7.5 5.067 3.913 9.711 6.773 13.579 8.355 3.8 1.558 6.789 4.613 8.203 8.37a13.82 13.82 0 01-.59 11.157l-.371.75c-2.895 5.77-9.344 8.828-15.64 7.516a49.03 49.03 0 01-7.368-2.215c.008 2.281.039 4.559.101 6.832 8.313 5.656 18.649 10.441 30.766 14.242 8.746 2.738 13.926 11.52 12.05 20.418a17.63 17.63 0 01-8.48 11.676 17.486 17.486 0 01-14.265 1.418 154.373 154.373 0 01-14.27-5.567c1.39 5.13 3.031 10.008 4.918 14.602 7.403-.715 16.614-2.016 24.989-4.348 3.492-.964 7.218-.406 10.234 1.532a12.055 12.055 0 015.371 8.3c1.566 10.176-5.898 17.961-22.227 23.2a73.385 73.385 0 0012.547 10.16c4.29-1.367 8.196-2.824 11.653-4.34 3.312-1.445 7.086-1.426 10.347.082a12.025 12.025 0 016.492 7.46 15.06 15.06 0 01.16 8.044zm0 0" fill="#4c241d"/><path d="M253.652 141.547c2.684 1.918 2.86 5.777.633 8.203-3.27 3.566-6.351 7.46-9.172 11.332 3.602 12.512 10.356 25.879 22.508 37.648-.476-12.972 1.2-24.964 2.934-33.257 1.312-6.301 7.84-9.993 13.945-7.957 5.281 1.761 8.293 7.28 7.055 12.71-4.582 20.044-4.086 34.497-2.39 44.063 7.41 3.996 15.929 7.508 25.737 10.363-.664-6.863.32-12.664 1.45-16.562.937-3.23 3.898-5.406 7.257-5.309l.836.024c4.387.129 7.473 4.039 7.016 8.406-.582 5.543.039 11.937.957 17.531a216 216 0 0014.074 2.102c-2.36-8.75-2.668-15.543 2.133-15.543 6.79 0 11.89 8.445 15.305 16.933 9.043.442 18.664.532 29.066.133 0 0 1.36-6.597 2.559-17.105-5.004-4.13-11.746-9.07-18.23-11.723-4.063-1.664-6.048-6.234-4.087-10.16l.375-.746a7.323 7.323 0 018.11-3.883c3.996.852 9.617 2.746 15.386 6.633.282-6.684.325-13.953 0-21.543-7.582-5.63-18.843-11.942-35.421-17.14-5.313-1.669-8.563-7.052-7.415-12.5 1.32-6.302 7.797-10.075 13.903-8.032 7.062 2.363 16.57 6.137 26.215 11.738-2.04-11.77-5.344-23.535-10.399-34.457-8.625.633-20.43 2-31.117 4.985-3.176.886-6.535-1.02-7.031-4.278-.801-5.258 2.988-13.09 27.781-18.344-6.285-8.378-14.148-15.707-23.91-21.43-5.09 1.52-10.367 3.345-15.328 5.52-3.02 1.325-6.61-.086-7.559-3.242-.82-2.715-.43-6.34 3.684-10.445-4.797-1.438-9.832-2.653-15.317-3.438-6.687-.957-13.453 1.438-18.226 6.211a21.743 21.743 0 00-6.367 15.375v1.606c0 9.219-7.477 16.695-16.696 16.695h-4.027a21.762 21.762 0 00-12.063 3.652l-6.695 4.465c-5.695 3.797-9.277 10.016-9.656 16.852-.227 4.047-.246 9.004.21 14.512 5.708-3.137 9.544-2.34 11.977-.598zm0 0" fill="#a9ba5a"/><path d="M379.875 239.445c-5.441 0-10.832-.125-16.281-.39a6.838 6.838 0 01-6-4.274c-2.031-5.047-3.953-8.226-5.531-10.136.21 1.187.539 2.648 1.019 4.421a6.834 6.834 0 01-1.426 6.239 6.767 6.767 0 01-5.96 2.32 224.043 224.043 0 01-14.509-2.172 6.831 6.831 0 01-5.511-5.613c-1.219-7.5-1.559-14.008-1-19.34.047-.45-.14-.7-.192-.758l-1.093-.14c-1.36 3.418-2.282 8.32-1.696 14.394a6.812 6.812 0 01-2.433 5.91 6.76 6.76 0 01-6.266 1.301c-9.871-2.867-18.98-6.539-27.078-10.914a6.8 6.8 0 01-3.473-4.813c-2.394-13.453-1.57-29.187 2.453-46.773.465-2.043-.632-4.07-2.566-4.719-1.434-.48-2.656-.008-3.234.32a3.848 3.848 0 00-1.868 2.567c-1.527 7.355-3.261 18.82-2.789 31.61a6.811 6.811 0 01-4.039 6.484 6.817 6.817 0 01-7.527-1.332c-11.605-11.239-19.785-24.922-24.32-40.66-.578-2.02-.2-4.2 1.043-5.899 2.675-3.695 5.351-7.062 7.964-10.047-1.058.285-2.14.848-2.597 1.102a6.847 6.847 0 01-6.516.027 6.817 6.817 0 01-3.574-5.45 112.308 112.308 0 01-.23-15.452c.492-8.906 5.23-17.184 12.687-22.16l6.691-4.457a28.507 28.507 0 0115.856-4.801h4.023c5.442 0 9.868-4.426 9.868-9.863v-1.61c0-7.52 3.046-14.887 8.367-20.199 6.347-6.348 15.351-9.34 24.023-8.145 5.235.747 10.574 1.942 16.3 3.653a6.819 6.819 0 014.669 4.867 6.833 6.833 0 01-1.8 6.508c-.349.347-.923.953-1.36 1.62 4.152-1.706 8.781-3.327 13.785-4.82a6.76 6.76 0 015.398.649c10.063 5.89 18.782 13.7 25.926 23.219a6.822 6.822 0 01.934 6.5 6.834 6.834 0 01-4.973 4.281c-13.867 2.938-19.566 6.453-21.547 8.71 10.703-2.718 22.082-3.98 29.996-4.558 2.824-.234 5.5 1.36 6.692 3.938 4.96 10.715 8.632 22.883 10.925 36.164a6.834 6.834 0 01-2.824 6.766 6.841 6.841 0 01-7.328.292c-9.473-5.5-18.793-9.105-24.945-11.16a3.84 3.84 0 00-3.149.317 3.93 3.93 0 00-1.914 2.636c-.418 1.989.782 3.961 2.774 4.59 14.902 4.672 27.508 10.785 37.453 18.18a6.81 6.81 0 012.754 5.191c.312 7.348.308 14.793-.008 22.121a6.83 6.83 0 01-3.746 5.801 6.8 6.8 0 01-6.887-.433c-5.105-3.442-9.887-4.953-12.992-5.621l-.953 1.011c.012.336.144.621.574.797 5.918 2.41 12.652 6.711 19.984 12.766a6.822 6.822 0 012.434 6.039c-1.219 10.687-2.594 17.426-2.652 17.715a6.83 6.83 0 01-6.426 5.437c-4.516.16-8.965.246-13.379.246zm-11.398-13.851c6.234.219 12.425.265 18.765.12.32-2.015.7-4.542 1.082-7.503-5.066-3.91-9.715-6.774-13.582-8.352-3.8-1.562-6.785-4.613-8.199-8.375-1.379-3.672-1.176-7.64.586-11.152l.375-.754c2.894-5.766 9.312-8.832 15.64-7.512 2.02.434 4.54 1.121 7.364 2.215-.004-2.281-.04-4.562-.098-6.836-8.316-5.652-18.648-10.437-30.765-14.238-8.75-2.738-13.93-11.52-12.055-20.422a17.644 17.644 0 018.48-11.672 17.443 17.443 0 0114.266-1.422 155.519 155.519 0 0114.273 5.567c-1.39-5.125-3.03-10.004-4.922-14.598-7.398.711-16.609 2.012-24.984 4.348-3.48.976-7.215.41-10.234-1.535a12.04 12.04 0 01-5.371-8.297C337.53 105 344.996 97.215 361.32 91.973a73.42 73.42 0 00-12.547-10.16c-4.285 1.367-8.191 2.828-11.652 4.34a12.585 12.585 0 01-10.344-.079 12.052 12.052 0 01-6.496-7.46 15.082 15.082 0 01-.16-8.04 86.39 86.39 0 00-5.894-1.039c-4.477-.648-9.114.957-12.438 4.281a15.019 15.019 0 00-4.367 10.547v1.606c0 12.965-10.555 23.52-23.52 23.52h-4.027c-2.953 0-5.82.866-8.281 2.507l-6.692 4.457c-3.894 2.602-6.375 6.922-6.636 11.555a95.497 95.497 0 00-.137 5.199c4.445-.277 7.613 1.441 9.492 2.781 0 .008.004.008.004.016a12.028 12.028 0 014.953 8.539c.375 3.566-.816 7.148-3.266 9.82-2.152 2.352-4.386 5.04-6.652 8.02 2.152 6.5 5.067 12.566 8.711 18.144a154.187 154.187 0 012.488-16.445 17.542 17.542 0 018.434-11.613 17.634 17.634 0 0114.36-1.426c8.632 2.879 13.6 11.785 11.546 20.71-3.933 17.216-3.847 29.833-2.812 38.083a122.13 122.13 0 0012.699 5.426 49.48 49.48 0 011.7-9.067c1.808-6.218 7.433-10.285 14.019-10.238l.855.031c3.906.106 7.5 1.801 10.086 4.754 2.652 3.028 3.926 7.102 3.508 11.176-.207 1.934-.25 4.117-.129 6.547.3-2.442 1.09-4.422 2.355-6.082 1.934-2.52 4.829-3.906 8.141-3.906 7.816-.004 14.48 5.75 19.856 17.117zm0 0" fill="#4c241d"/><path d="M158.164 209.16l-.121-.12a29.696 29.696 0 00-25.883-8.294l-19.828 3.3c-2.86.481-5.27-2.132-4.566-4.948A29.7 29.7 0 0094.23 166.43c-10.527-6.317-24.046-5.711-33.578 2.035-16.992 13.808-24.164 32.14-26.265 50.246h26.472a7.2 7.2 0 016.446 3.988c2.238 4.473-.618 9.793-5.586 10.371-8.149.946-19.383 3.203-27.598 8.371 2.031 25.227 10.715 45.54 10.715 45.54 19.797 2.64 36.785 1.953 51.316-.856 6.223-24.195 18.961-66.977 23.778-33.281 1.336 9.367-.5 18.726-4.274 27.734 21.055-7.957 35.356-20.492 44.54-31.625 9.706-11.77 8.757-29.004-2.032-39.793zm0 0" fill="#a9ba5a"/><path d="M68.844 295.453c-8.047 0-16.364-.566-24.91-1.707a6.833 6.833 0 01-5.38-4.086c-.367-.867-9.136-21.629-11.238-47.676a6.846 6.846 0 013.172-6.328c9.426-5.926 21.762-8.363 30.453-9.363l-.078-.754H34.391c-1.95 0-3.801-.832-5.102-2.285a6.831 6.831 0 01-1.68-5.328c2.668-23.008 12.34-41.434 28.743-54.762 11.62-9.445 28.253-10.48 41.398-2.586 12.676 7.606 19.348 21.727 17.422 36.074l15.875-2.64a36.53 36.53 0 0131.824 10.199l.121.121c13.39 13.395 14.453 34.441 2.473 48.965-12.36 14.973-28.75 26.613-47.395 33.668a6.857 6.857 0 01-7.328-1.645 6.82 6.82 0 01-1.379-7.382c3.54-8.454 4.832-16.465 3.852-23.813-2.594 6.336-6.149 16.965-10.453 33.7a6.827 6.827 0 01-5.32 5c-9.051 1.753-18.618 2.628-28.598 2.628zM49.73 280.7c14.551 1.63 28.286 1.442 40.918-.539 11.567-43.625 18.13-46.945 24.57-46.574 8.927.496 10.645 12.516 11.473 18.297.746 5.25.653 10.687-.28 16.246 13.433-7.379 22.702-16.461 28.519-23.52 7.48-9.066 6.793-22.234-1.594-30.62l-.117-.118c-5.215-5.215-12.676-7.586-19.93-6.387l-19.832 3.301a10.86 10.86 0 01-9.754-3.332 10.827 10.827 0 01-2.566-9.992c2.468-9.844-1.719-19.953-10.414-25.168-8.23-4.934-18.586-4.356-25.758 1.473-11.715 9.52-19.29 22.32-22.57 38.125h18.468a13.944 13.944 0 0112.551 7.77 14.072 14.072 0 01-.2 12.952 14.016 14.016 0 01-10.698 7.246c-8.328.961-15.668 2.856-21.16 5.422 1.808 15.844 6.14 29.274 8.374 35.418zm61.489-83.387h-.008zm0 0" fill="#4c241d"/><path d="M201.848 420.098c-39.586 0-71.68-32.09-71.68-71.68v-44.371h143.363v44.371c0 39.59-32.094 71.68-71.683 71.68zm0 0" fill="#fff"/><path d="M201.848 426.926c-43.286 0-78.504-35.219-78.504-78.508v-44.371a6.822 6.822 0 016.824-6.828h143.363a6.822 6.822 0 016.824 6.828v44.371c0 43.289-35.218 78.508-78.507 78.508zM136.996 310.87v37.547c0 35.762 29.094 64.855 64.852 64.855 35.761 0 64.855-29.093 64.855-64.855v-37.547zm0 0" fill="#4c241d"/><path d="M201.848 399.617a6.818 6.818 0 01-6.825-6.824 6.822 6.822 0 016.825-6.828c3.742 0 7.441-.461 10.996-1.371 3.613-.934 7.363 1.258 8.304 4.918a6.833 6.833 0 01-4.921 8.308 58.011 58.011 0 01-14.38 1.797zm0 0M236.285 386.313a6.825 6.825 0 01-4.594-11.88 44.756 44.756 0 0011.047-15.566 6.818 6.818 0 018.938-3.637 6.824 6.824 0 013.637 8.942c-3.243 7.68-8.235 14.719-14.434 20.367a6.82 6.82 0 01-4.594 1.773zm0 0" fill="#4c241d"/></svg>
